# xmcd
#
# Track frame offsets:
#	150
#	14395
#	28652
#	47695
#	63960
#	73270
#	86337
#	105680
#
# Disc length: 1977 seconds
#
# Revision: 0
# Processed by: cddbd v1.5.2PL0 Copyright (c) Steve Scherf et al.
# Submitted via: EasyCDDAExtractor 10.0.6.1
#
DISCID=6307b708
DTITLE=Various Artist - Southern Communications AOH66 
DYEAR=1993
DGENRE=Gospel
TTITLE0=The Talleys - He Won't Take Back One Promise
TTITLE1=Midsouth - The Only Bible
TTITLE2=Paul Overstreet - Love Is Strong
TTITLE3=Sisters - Whisper Jesus
TTITLE4=The Arnolds - WE're Gonna Pray
TTITLE5=The MaHarrys - Jesus Will Heal Your Achey Breaky Heart
TTITLE6=Levoy Dewey - Because Of Yesterday
TTITLE7=Then Talleys - Halleluh=jah, Praise The Lamb Medley
EXTD=
EXTT0=
EXTT1=
EXTT2=
EXTT3=
EXTT4=
EXTT5=
EXTT6=
EXTT7=
PLAYORDER=
